<svg xmlns="http://www.w3.org/2000/svg" fill="none" viewBox="0 0 1000 1000">
  <path d="M500 400c-110 0-200 90-200 200s90 200 200 200 200-90 200-200-90-200-200-200zM500 300c166 0 300 134 300 300s-134 300-300 300-300-134-300-300 134-300 300-300zM385 267l-87 49-98-175 87-49zM615 267l98-175 87 49-98 175zM450 250v-200h100v200h-100zM450 600c0 30 20 50 50 50s50-20 50-50h100c0 80-70 150-150 150s-150-70-150-150z" />
  <style>
        path { fill: #000; }
        @media (prefers-color-scheme: dark) {
            path { fill: #FFF; }
        }
    </style>
</svg>
